<?xml version="1.0" encoding="UTF-8" standalone="no"?>
<svg
   width="923"
   height="176.13"
   viewBox="0 0 923 176.13"
   fill="none"
   role="img"
   aria-labelledby="title desc"
   version="1.1"
   id="svg25"
   xmlns:xlink="http://www.w3.org/1999/xlink"
   xmlns="http://www.w3.org/2000/svg"
   xmlns:svg="http://www.w3.org/2000/svg"
   xmlns:rdf="http://www.w3.org/1999/02/22-rdf-syntax-ns#"
   xmlns:cc="http://creativecommons.org/ns#"
   xmlns:dc="http://purl.org/dc/elements/1.1/">
  <title
     id="title">Mezanino Imobiliária</title>
  <desc
     id="desc">Versão SVG 100% geométrica e fiel visualmente da segunda opção do logo Mezanino Imobiliária.</desc>
  <defs
     id="defs4">
    <linearGradient
       id="goldGrad"
       x1="430"
       y1="350"
       x2="830"
       y2="850"
       gradientUnits="userSpaceOnUse">
      <stop
         offset="0%"
         stop-color="#D2A868"
         id="stop1" />
      <stop
         offset="100%"
         stop-color="#BD8D44"
         id="stop2" />
    </linearGradient>
    <linearGradient
       id="navyGrad"
       x1="420"
       y1="290"
       x2="820"
       y2="860"
       gradientUnits="userSpaceOnUse">
      <stop
         offset="0%"
         stop-color="#243752"
         id="stop3" />
      <stop
         offset="100%"
         stop-color="#16273F"
         id="stop4" />
    </linearGradient>
    <linearGradient
       xlink:href="#navyGrad"
       id="linearGradient25"
       gradientUnits="userSpaceOnUse"
       x1="420"
       y1="290"
       x2="820"
       y2="860" />
    <linearGradient
       xlink:href="#navyGrad"
       id="linearGradient26"
       gradientUnits="userSpaceOnUse"
       x1="420"
       y1="290"
       x2="820"
       y2="860" />
    <linearGradient
       xlink:href="#navyGrad"
       id="linearGradient27"
       gradientUnits="userSpaceOnUse"
       x1="420"
       y1="290"
       x2="820"
       y2="860" />
    <linearGradient
       xlink:href="#navyGrad"
       id="linearGradient28"
       gradientUnits="userSpaceOnUse"
       x1="420"
       y1="290"
       x2="820"
       y2="860" />
    <linearGradient
       xlink:href="#navyGrad"
       id="linearGradient29"
       gradientUnits="userSpaceOnUse"
       x1="420"
       y1="290"
       x2="820"
       y2="860" />
    <linearGradient
       xlink:href="#navyGrad"
       id="linearGradient30"
       gradientUnits="userSpaceOnUse"
       x1="420"
       y1="290"
       x2="820"
       y2="860" />
    <linearGradient
       xlink:href="#navyGrad"
       id="linearGradient31"
       gradientUnits="userSpaceOnUse"
       x1="420"
       y1="290"
       x2="820"
       y2="860" />
    <linearGradient
       xlink:href="#navyGrad"
       id="linearGradient32"
       gradientUnits="userSpaceOnUse"
       x1="420"
       y1="290"
       x2="820"
       y2="860" />
    <linearGradient
       xlink:href="#goldGrad"
       id="linearGradient33"
       gradientUnits="userSpaceOnUse"
       x1="430"
       y1="350"
       x2="830"
       y2="850" />
    <linearGradient
       xlink:href="#goldGrad"
       id="linearGradient34"
       gradientUnits="userSpaceOnUse"
       x1="430"
       y1="350"
       x2="830"
       y2="850" />
    <linearGradient
       xlink:href="#goldGrad"
       id="linearGradient35"
       gradientUnits="userSpaceOnUse"
       x1="430"
       y1="350"
       x2="830"
       y2="850" />
    <linearGradient
       xlink:href="#goldGrad"
       id="linearGradient36"
       gradientUnits="userSpaceOnUse"
       x1="430"
       y1="350"
       x2="830"
       y2="850" />
    <linearGradient
       xlink:href="#goldGrad"
       id="linearGradient37"
       gradientUnits="userSpaceOnUse"
       x1="430"
       y1="350"
       x2="830"
       y2="850" />
    <linearGradient
       xlink:href="#goldGrad"
       id="linearGradient38"
       gradientUnits="userSpaceOnUse"
       x1="430"
       y1="350"
       x2="830"
       y2="850" />
    <linearGradient
       xlink:href="#goldGrad"
       id="linearGradient39"
       gradientUnits="userSpaceOnUse"
       x1="430"
       y1="350"
       x2="830"
       y2="850" />
    <linearGradient
       xlink:href="#goldGrad"
       id="linearGradient40"
       gradientUnits="userSpaceOnUse"
       x1="430"
       y1="350"
       x2="830"
       y2="850" />
    <linearGradient
       xlink:href="#goldGrad"
       id="linearGradient41"
       gradientUnits="userSpaceOnUse"
       x1="430"
       y1="350"
       x2="830"
       y2="850" />
    <linearGradient
       xlink:href="#goldGrad"
       id="linearGradient42"
       gradientUnits="userSpaceOnUse"
       x1="430"
       y1="350"
       x2="830"
       y2="850" />
    <linearGradient
       xlink:href="#goldGrad"
       id="linearGradient43"
       gradientUnits="userSpaceOnUse"
       x1="430"
       y1="350"
       x2="830"
       y2="850" />
    <linearGradient
       xlink:href="#goldGrad"
       id="linearGradient44"
       gradientUnits="userSpaceOnUse"
       x1="430"
       y1="350"
       x2="830"
       y2="850" />
    <linearGradient
       xlink:href="#goldGrad"
       id="linearGradient45"
       gradientUnits="userSpaceOnUse"
       x1="430"
       y1="350"
       x2="830"
       y2="850" />
    <linearGradient
       xlink:href="#goldGrad"
       id="linearGradient46"
       gradientUnits="userSpaceOnUse"
       x1="430"
       y1="350"
       x2="830"
       y2="850" />
  </defs>
  <g
     id="wordmark"
     transform="translate(-163.9461,-736.39439)">
    <path
       d="m 343.54,815.64 q 0.61,9.75 7.06,12.61 0.91,0.45 3.37,1.29 2.49,0.82 3.68,1.5 1.2,0.66 1.2,1.71 0,2.11 -4.81,2.55 -0.28,0 -3.37,-0.23 -3.07,-0.21 -7.36,-0.45 -4.27,-0.23 -7.41,-0.23 -3.14,0 -7.12,0.23 -3.99,0.24 -6.75,0.45 -2.77,0.23 -3.07,0.23 -4.95,-0.44 -4.95,-2.55 0,-1.05 1.2,-1.71 1.19,-0.68 3.65,-1.5 2.49,-0.84 3.4,-1.29 7.5,-3.3 7.03,-12.61 l -1.94,-47.25 q -0.14,-2.53 -1.95,-1.78 -1.19,0.59 -1.94,2.25 l -20.25,46.5 q -1.2,2.69 -4.29,8.48 -3.07,5.77 -3.96,5.77 -1.2,0 -2.42,-1.81 -1.19,-1.8 -3.44,-7.5 l -18.45,-47.25 q -1.05,-2.69 -1.87,-3.3 -0.82,-0.61 -1.29,0.37 -0.45,0.99 -0.59,3.08 l -2.55,41.85 q -0.31,3.75 0.82,7.88 1.12,4.12 3.84,5.32 0.89,0.45 3.35,1.29 2.49,0.82 3.68,1.5 1.22,0.66 1.22,1.71 0,2.11 -4.8,2.55 -0.31,0 -2.56,-0.23 -2.25,-0.21 -5.69,-0.45 -3.45,-0.23 -6.61,-0.23 -3.14,0 -6.31,0.23 -3.14,0.24 -5.18,0.45 -2.01,0.23 -2.32,0.23 -4.94,-0.44 -4.94,-2.55 0,-1.05 1.12,-1.71 1.13,-0.68 3.68,-1.5 2.56,-0.84 3.45,-1.29 6.91,-3 8.69,-15.75 l 5.11,-39.89 q 0.89,-7.36 -0.3,-10.66 -1.2,-3.31 -4.5,-6.31 -0.89,-0.89 -3.14,-2.32 -2.25,-1.43 -3.61,-2.62 -1.34,-1.2 -1.34,-2.25 0,-2.09 5.09,-2.09 2.55,0 7.8,0.37 5.25,0.38 8.86,0.38 3,0 5.16,2.18 2.18,2.16 4.29,7.26 l 17.55,43.06 q 0.59,1.64 0.89,2.09 0.31,0.44 0.82,0.98 0.54,0.52 1.29,-0.3 0.75,-0.83 1.64,-2.93 l 23.56,-48.9 q 1.19,-2.41 2.69,-2.93 1.5,-0.51 4.95,-0.51 1.8,0 9.14,-0.75 7.36,-0.75 9.91,-0.75 2.39,0 2.39,2.53 0,1.06 -1.12,1.74 -1.13,0.67 -6.07,2.76 -3.59,1.5 -4.88,4.36 -1.26,2.86 -0.96,9.14 z"
       fill="url(#navyGrad)"
       id="path4"
       style="fill:url(#linearGradient25)" />
    <path
       d="m 396.4,781.61 q 0,4.64 3.45,4.64 h 12.89 q 2.25,0 3.98,-0.59 1.74,-0.61 2.56,-1.28 0.82,-0.68 2.62,-2.33 0.45,-0.44 1.41,-1.57 0.98,-1.12 1.73,-1.64 0.75,-0.54 1.5,-0.54 1.67,0 1.67,3 0,0.45 -0.31,3.99 -0.3,3.51 -0.3,4.71 0,1.2 0.07,4.5 0.07,3.3 0.07,4.05 0,3.9 -1.95,3.9 -0.58,0 -1.19,-0.45 -0.61,-0.45 -1.13,-1.2 -0.51,-0.75 -0.89,-1.33 -0.37,-0.61 -0.91,-1.59 -0.52,-0.99 -0.68,-1.13 -1.95,-3.14 -5.25,-3.14 h -15.75 q -2.09,0 -2.84,0.75 -0.75,0.75 -0.75,2.84 v 25.19 q 0,3 1.27,4.43 1.29,1.43 4.43,1.43 h 21 q 4.19,0 6.89,-0.68 2.72,-0.68 4.8,-3 2.11,-2.32 3.07,-4.03 0.99,-1.74 3.1,-6.24 1.33,-2.85 4.03,-2.85 2.11,0 2.11,3.75 0,2.85 -2.25,9.09 -2.25,6.21 -3.45,8.16 -0.75,1.35 -1.05,1.8 -0.31,0.45 -1.06,0.75 -0.75,0.3 -1.94,0.3 -1.5,0 -20.42,-0.37 -18.89,-0.38 -28.19,-0.38 -3.14,0 -7.13,0.17 -3.96,0.14 -6.75,0.35 -2.76,0.23 -3.07,0.23 -4.94,-0.44 -4.94,-2.55 0,-1.05 1.19,-1.71 1.2,-0.68 3.68,-1.5 2.49,-0.84 3.38,-1.29 3.75,-1.64 5.39,-4.13 1.66,-2.48 1.66,-6.67 V 762.7 q 0,-1.34 -0.09,-2.47 -0.07,-1.12 -0.52,-2.11 -0.44,-0.98 -0.68,-1.57 -0.21,-0.6 -1.12,-1.19 -0.89,-0.61 -1.2,-0.91 -0.3,-0.31 -1.73,-0.83 -1.41,-0.51 -1.95,-0.65 -0.51,-0.17 -2.39,-0.68 -1.87,-0.54 -2.62,-0.68 -2.39,-0.75 -2.39,-2.56 0,-2.69 5.25,-2.69 h 43.03 q 3.61,0 10.29,-0.38 6.68,-0.37 7.57,-0.37 3.44,0 3.89,2.09 1.36,5.41 1.36,12.3 0,3.89 -2.39,3.89 -2.86,0 -5.42,-5.69 -2.39,-4.95 -12.14,-4.95 h -17.86 q -2.83,0 -3.75,0.75 -0.89,0.75 -0.89,2.39 z"
       fill="url(#navyGrad)"
       id="path5"
       style="fill:url(#linearGradient26)" />
    <path
       d="m 488.24,834.55 q -5.84,0 -15.75,0.38 -9.89,0.37 -14.7,0.37 -2.69,0 -2.69,-4.19 0,-0.61 0.96,-1.95 0.98,-1.36 3.68,-4.87 2.69,-3.54 4.8,-6.54 L 507.43,757 q 1.36,-1.95 0.82,-2.62 -0.51,-0.68 -2.76,-0.68 h -29.25 q -6.59,0 -10.06,3.91 -0.75,0.89 -2.93,3.68 -2.15,2.76 -3.51,4.19 -1.34,1.41 -1.95,1.41 -2.25,0 -2.25,-4.19 0,-3.9 1.64,-13.81 0.61,-3.28 3.47,-3.28 0.75,0 4.64,0.82 3.89,0.82 7.95,0.82 h 27.3 q 1.95,0 11.53,-0.21 9.61,-0.24 12.33,-0.24 4.5,0 5.25,1.2 0.59,0.75 0.59,2.25 0,1.8 -5.56,9.45 l -46.78,65.55 q -1.22,1.8 -0.77,2.41 0.47,0.59 2.86,0.59 h 32.25 q 2.86,0 5.11,-0.82 2.25,-0.82 3.65,-1.81 1.43,-0.98 2.93,-3.14 1.5,-2.18 2.18,-3.51 0.68,-1.36 2.02,-4.43 1.36,-3.09 1.97,-4.43 1.33,-2.86 4.03,-2.86 2.72,0 2.72,7.05 0,2.84 -1.97,9.68 -1.95,6.82 -2.98,8.47 -0.91,1.8 -1.66,2.34 -0.75,0.51 -2.56,0.51 -2.83,0 -20.08,-0.37 -17.25,-0.38 -19.36,-0.38 z"
       fill="url(#navyGrad)"
       id="path6"
       style="fill:url(#linearGradient27)" />
    <path
       d="m 577.54,794.2 q -0.89,1.8 -0.68,2.48 0.24,0.68 2.04,0.68 h 18.31 q 2.25,0 2.53,-0.89 0.3,-0.92 -0.89,-4.52 l -9.14,-28.06 q -0.61,-2.09 -1.67,0.47 z m 42.75,40.19 q -5.55,0 -12,0.47 -6.44,0.44 -8.11,0.44 -1.64,0 -3.21,-0.68 -1.57,-0.67 -1.57,-1.87 0,-1.05 1.13,-1.71 1.12,-0.68 3.58,-1.5 2.49,-0.84 3.38,-1.29 5.86,-2.7 4.36,-7.95 l -4.36,-14.25 q -0.59,-1.8 -2.39,-1.8 h -25.06 q -1.8,0 -2.39,1.64 l -5.69,16.36 q -1.67,4.95 3.28,6.3 5.55,1.5 5.55,4.2 0,2.55 -5.25,2.55 -1.5,0 -6.23,-0.44 -4.71,-0.47 -6.07,-0.47 -2.09,0 -5.32,0.47 -3.21,0.44 -4.13,0.44 -4.94,0 -4.94,-2.55 0,-1.05 1.19,-1.71 1.2,-0.68 3.68,-1.5 2.49,-0.84 3.38,-1.29 0.75,-0.3 1.33,-0.59 0.61,-0.3 1.06,-0.61 0.47,-0.3 0.91,-0.67 0.45,-0.38 0.66,-0.52 0.23,-0.16 0.54,-0.75 0.3,-0.61 0.44,-0.75 0.17,-0.16 0.54,-0.98 0.38,-0.83 0.45,-1.13 0.07,-0.3 0.51,-1.43 0.45,-1.12 0.61,-1.71 l 22.95,-63.47 q 0.61,-1.64 1.19,-3.28 0.61,-1.66 0.89,-2.48 0.31,-0.83 0.61,-1.5 0.31,-0.68 0.68,-0.97 0.38,-0.3 0.82,-0.3 1.67,-0.16 3.92,-2.32 2.25,-2.18 2.53,-2.18 0.75,0 1.36,0.51 0.61,0.52 1.12,1.65 0.52,1.12 0.89,2.18 0.38,1.05 1.06,3.16 0.68,2.09 1.12,3.28 l 19.81,55.97 q 3.61,9.89 5.86,13.43 2.25,3.51 7.5,5.46 6,2.11 6,4.64 0,2.41 -4.36,2.41 -1.5,0 -6.31,-0.44 -4.8,-0.47 -7.5,-0.47 z"
       fill="url(#navyGrad)"
       id="path7"
       style="fill:url(#linearGradient28)" />
    <path
       d="m 670.9,815.64 q 0,9.47 7.06,12.61 0.89,0.45 3.35,1.29 2.48,0.82 3.68,1.5 1.22,0.66 1.22,1.71 0,2.11 -4.81,2.55 -0.3,0 -2.55,-0.23 -2.25,-0.21 -5.7,-0.45 -3.44,-0.23 -6.61,-0.23 -3.14,0 -6.3,0.23 -3.14,0.24 -5.18,0.45 -2.02,0.23 -2.32,0.23 -4.95,-0.44 -4.95,-2.55 0,-1.05 1.2,-1.71 1.22,-0.68 3.68,-1.5 2.48,-0.84 3.37,-1.29 7.06,-3.14 7.06,-12.61 V 776.5 q 0,-12 -2.11,-14.55 l -5.53,-6 q -1.36,-1.34 -3.68,-2.7 -2.32,-1.36 -3.82,-2.32 -1.5,-0.98 -1.5,-2.18 0,-1.64 3.14,-1.64 h 15.75 q 3,0 7.94,5.39 l 49.95,56.11 q 1.05,1.19 1.94,1.73 0.92,0.52 1.6,0.14 0.68,-0.37 0.68,-1.87 V 762.7 q 0,-1.65 -0.24,-2.91 -0.23,-1.29 -0.47,-2.18 -0.21,-0.91 -1.03,-1.66 -0.82,-0.75 -1.12,-1.13 -0.31,-0.37 -1.81,-0.96 -1.5,-0.61 -2.04,-0.75 -0.51,-0.16 -2.69,-0.75 -2.16,-0.61 -2.91,-0.75 -2.41,-0.75 -2.41,-2.56 0,-1.19 1.64,-1.94 1.66,-0.75 3.61,-0.75 3,0 6.98,0.37 3.99,0.38 6.68,0.38 2.7,0 6.82,-0.38 4.13,-0.37 6.68,-0.37 1.95,0 3.59,0.75 1.66,0.75 1.66,1.94 0,1.81 -2.25,2.56 -0.91,0.28 -2.65,0.75 -1.71,0.44 -2.39,0.61 -0.65,0.14 -1.94,0.58 -1.27,0.45 -1.74,0.83 -0.44,0.37 -1.26,0.91 -0.82,0.51 -1.13,1.19 -0.3,0.66 -0.68,1.57 -0.37,0.9 -0.51,2.02 -0.14,1.13 -0.14,2.63 v 59.85 q 0,3.9 0.21,7.27 0.23,3.38 0.23,5.04 0,1.78 -3,1.78 -1.5,0 -5.18,-2.39 -3.68,-2.39 -7.57,-6.61 l -46.66,-51.75 q -2.84,-3.14 -2.84,1.5 z"
       fill="url(#navyGrad)"
       id="path8"
       style="fill:url(#linearGradient29)" />
    <path
       d="m 797.4,746.36 q 1.95,0 3.59,0.75 1.66,0.75 1.66,1.94 0,1.81 -2.25,2.56 -0.75,0.14 -2.62,0.68 -1.88,0.51 -2.42,0.68 -0.51,0.14 -1.94,0.65 -1.41,0.52 -1.78,0.83 -0.38,0.3 -1.29,0.91 -0.89,0.59 -1.13,1.19 -0.21,0.59 -0.68,1.57 -0.44,0.99 -0.51,2.11 -0.07,1.13 -0.07,2.47 v 54.75 q 0,4.19 1.64,6.67 1.66,2.49 5.41,4.13 0.89,0.45 3.35,1.29 2.49,0.82 3.68,1.5 1.22,0.66 1.22,1.71 0,2.11 -4.8,2.55 -0.31,0 -3.38,-0.23 -3.07,-0.21 -7.36,-0.45 -4.26,-0.23 -7.43,-0.23 -3.14,0 -7.12,0.23 -3.96,0.24 -6.75,0.45 -2.77,0.23 -3.07,0.23 -4.95,-0.44 -4.95,-2.55 0,-1.05 1.2,-1.71 1.19,-0.68 3.68,-1.5 2.48,-0.84 3.37,-1.29 3.75,-1.64 5.39,-4.13 1.67,-2.48 1.67,-6.67 V 762.7 q 0,-1.34 -0.1,-2.47 -0.07,-1.12 -0.51,-2.11 -0.45,-0.98 -0.68,-1.57 -0.21,-0.6 -1.13,-1.19 -0.89,-0.61 -1.19,-0.91 -0.31,-0.31 -1.74,-0.83 -1.4,-0.51 -1.94,-0.65 -0.52,-0.17 -2.39,-0.68 -1.88,-0.54 -2.63,-0.68 -2.39,-0.75 -2.39,-2.56 0,-1.19 1.64,-1.94 1.64,-0.75 3.61,-0.75 3,0 8.46,0.37 5.49,0.38 8.18,0.38 2.7,0 8.32,-0.38 5.63,-0.37 8.18,-0.37 z"
       fill="url(#navyGrad)"
       id="path9"
       style="fill:url(#linearGradient30)" />
    <path
       d="m 835.71,815.64 q 0,9.47 7.05,12.61 0.89,0.45 3.35,1.29 2.49,0.82 3.68,1.5 1.22,0.66 1.22,1.71 0,2.11 -4.8,2.55 -0.31,0 -2.56,-0.23 -2.25,-0.21 -5.69,-0.45 -3.45,-0.23 -6.61,-0.23 -3.14,0 -6.31,0.23 -3.14,0.24 -5.18,0.45 -2.01,0.23 -2.32,0.23 -4.94,-0.44 -4.94,-2.55 0,-1.05 1.19,-1.71 1.22,-0.68 3.68,-1.5 2.49,-0.84 3.38,-1.29 7.05,-3.14 7.05,-12.61 V 776.5 q 0,-12 -2.11,-14.55 l -5.53,-6 q -1.36,-1.34 -3.68,-2.7 -2.32,-1.36 -3.82,-2.32 -1.5,-0.98 -1.5,-2.18 0,-1.64 3.14,-1.64 h 15.75 q 3,0 7.95,5.39 l 49.94,56.11 q 1.06,1.19 1.95,1.73 0.91,0.52 1.59,0.14 0.68,-0.37 0.68,-1.87 V 762.7 q 0,-1.65 -0.23,-2.91 -0.24,-1.29 -0.47,-2.18 -0.21,-0.91 -1.03,-1.66 -0.82,-0.75 -1.13,-1.13 -0.3,-0.37 -1.8,-0.96 -1.5,-0.61 -2.04,-0.75 -0.52,-0.16 -2.7,-0.75 -2.15,-0.61 -2.9,-0.75 -2.42,-0.75 -2.42,-2.56 0,-1.19 1.64,-1.94 1.67,-0.75 3.61,-0.75 3,0 6.99,0.37 3.98,0.38 6.68,0.38 2.69,0 6.82,-0.38 4.12,-0.37 6.68,-0.37 1.94,0 3.58,0.75 1.67,0.75 1.67,1.94 0,1.81 -2.25,2.56 -0.92,0.28 -2.65,0.75 -1.71,0.44 -2.39,0.61 -0.66,0.14 -1.95,0.58 -1.26,0.45 -1.73,0.83 -0.45,0.37 -1.27,0.91 -0.82,0.51 -1.12,1.19 -0.31,0.66 -0.68,1.57 -0.38,0.9 -0.52,2.02 -0.14,1.13 -0.14,2.63 v 59.85 q 0,3.9 0.21,7.27 0.24,3.38 0.24,5.04 0,1.78 -3,1.78 -1.5,0 -5.18,-2.39 -3.68,-2.39 -7.57,-6.61 l -46.67,-51.75 q -2.83,-3.14 -2.83,1.5 z"
       fill="url(#navyGrad)"
       id="path10"
       style="fill:url(#linearGradient31)" />
    <path
       d="m 940.01,785.5 q 0,16.95 9,30.68 9,13.71 23.7,13.71 12.44,0 19.03,-11.01 6.61,-11.02 6.61,-25.88 0,-15.89 -8.02,-28.34 -8.01,-12.46 -21.82,-12.46 -12,0 -20.25,10.21 -8.25,10.2 -8.25,23.09 z m 34.2,-40.2 q 15.3,0 28.12,13.43 12.82,13.41 12.82,29.77 0,19.64 -12.82,33.98 -12.82,14.32 -31.73,14.32 -20.39,0 -33.89,-12.89 -13.5,-12.91 -13.5,-33.16 0,-21 14.18,-33.21 14.18,-12.24 36.82,-12.24 z"
       fill="url(#navyGrad)"
       id="path11"
       style="fill:url(#linearGradient32)" />
    <path
       d="m 584,794 h 43"
       stroke="url(#goldGrad)"
       stroke-width="5"
       stroke-linecap="square"
       id="path12"
       style="stroke:url(#linearGradient33)" />
    <path
       d="M 167,893 H 291"
       stroke="url(#goldGrad)"
       stroke-width="3"
       stroke-linecap="square"
       id="path13"
       style="stroke:url(#linearGradient34)" />
    <path
       d="m 447.12,880.09 h 5.12 V 918 h -5.12 z"
       fill="url(#goldGrad)"
       id="path14"
       style="fill:url(#linearGradient35)" />
    <path
       d="m 464.24,880.09 h 7.65 l 9.67,25.8 9.72,-25.8 h 7.65 V 918 h -5.01 v -33.29 l -9.77,26 H 479 l -9.78,-26 V 918 h -4.98 z"
       fill="url(#goldGrad)"
       id="path15"
       style="fill:url(#linearGradient36)" />
    <path
       d="m 528.5,883.57 q -5.59,0 -8.88,4.16 -3.28,4.16 -3.28,11.36 0,7.15 3.28,11.32 3.29,4.16 8.88,4.16 5.58,0 8.85,-4.16 3.27,-4.17 3.27,-11.32 0,-7.2 -3.27,-11.36 -3.27,-4.16 -8.85,-4.16 z m 0,-4.16 q 7.97,0 12.74,5.34 4.78,5.35 4.78,14.34 0,8.96 -4.78,14.3 -4.77,5.35 -12.74,5.35 -7.99,0 -12.79,-5.33 -4.78,-5.34 -4.78,-14.32 0,-8.99 4.78,-14.34 4.8,-5.34 12.79,-5.34 z"
       fill="url(#goldGrad)"
       id="path16"
       style="fill:url(#linearGradient37)" />
    <path
       d="m 563.15,899.9 v 13.88 h 8.23 q 4.13,0 6.12,-1.71 2,-1.72 2,-5.24 0,-3.56 -2,-5.24 -1.99,-1.69 -6.12,-1.69 z m 0,-15.59 v 11.42 h 7.59 q 3.76,0 5.59,-1.41 1.85,-1.41 1.85,-4.3 0,-2.87 -1.85,-4.29 -1.83,-1.42 -5.59,-1.42 z m -5.13,-4.22 h 13.11 q 5.86,0 9.03,2.44 3.18,2.43 3.18,6.93 0,3.48 -1.63,5.54 -1.62,2.05 -4.77,2.56 3.78,0.81 5.88,3.39 2.09,2.58 2.09,6.44 0,5.08 -3.45,7.85 -3.45,2.76 -9.83,2.76 h -13.61 z"
       fill="url(#goldGrad)"
       id="path17"
       style="fill:url(#linearGradient38)" />
    <path
       d="m 596.91,880.09 h 5.13 V 918 h -5.13 z"
       fill="url(#goldGrad)"
       id="path18"
       style="fill:url(#linearGradient39)" />
    <path
       d="m 614.04,880.09 h 5.13 v 33.6 h 18.46 V 918 h -23.59 z"
       fill="url(#goldGrad)"
       id="path19"
       style="fill:url(#linearGradient40)" />
    <path
       d="m 649.63,880.09 h 5.12 V 918 h -5.12 z"
       fill="url(#goldGrad)"
       id="path20"
       style="fill:url(#linearGradient41)" />
    <path
       d="m 684.13,885.14 -6.97,18.87 h 13.95 z m -2.9,-5.05 h 5.81 L 701.49,918 h -5.33 l -3.45,-9.73 h -17.09 l -3.45,9.73 h -5.42 z m 4.26,-10.2 h 4.7 l -5.79,6.71 h -3.89 z"
       fill="url(#goldGrad)"
       id="path21"
       style="fill:url(#linearGradient42)" />
    <path
       d="m 731.47,900.22 q 1.65,0.56 3.21,2.39 1.56,1.83 3.14,5.03 l 5.2,10.36 h -5.51 l -4.85,-9.73 q -1.88,-3.81 -3.64,-5.05 -1.77,-1.24 -4.81,-1.24 h -5.59 V 918 h -5.13 v -37.91 h 11.58 q 6.5,0 9.7,2.72 3.2,2.71 3.2,8.2 0,3.58 -1.67,5.95 -1.66,2.35 -4.83,3.26 z m -12.85,-15.91 v 13.45 h 6.45 q 3.7,0 5.59,-1.71 1.9,-1.72 1.9,-5.04 0,-3.32 -1.9,-5.01 -1.89,-1.69 -5.59,-1.69 z"
       fill="url(#goldGrad)"
       id="path22"
       style="fill:url(#linearGradient43)" />
    <path
       d="m 755.02,880.09 h 5.13 V 918 h -5.13 z"
       fill="url(#goldGrad)"
       id="path23"
       style="fill:url(#linearGradient44)" />
    <path
       d="m 789.52,885.14 -6.96,18.87 h 13.94 z m -2.9,-5.05 h 5.82 L 806.88,918 h -5.33 l -3.45,-9.73 h -17.09 l -3.45,9.73 h -5.41 z"
       fill="url(#goldGrad)"
       id="path24"
       style="fill:url(#linearGradient45)" />
    <path
       d="m 963,893 h 124"
       stroke="url(#goldGrad)"
       stroke-width="3"
       stroke-linecap="square"
       id="path25"
       style="stroke:url(#linearGradient46)" />
  </g>
  <metadata
     id="metadata25">
    <rdf:RDF>
      <cc:Work
         rdf:about="">
        <dc:title>Mezanino Imobiliária</dc:title>
      </cc:Work>
    </rdf:RDF>
  </metadata>
</svg>
