<svg xmlns="http://www.w3.org/2000/svg" width="1600" height="700" viewBox="0 0 1600 700">
  <defs>
    <style>
      .navy { fill: #021A39; }
      .gold { fill: #BC9350; }
      .shadow { fill: #D7D7D7; opacity: .85; }
      .line { stroke: #BC9350; stroke-width: 4; stroke-linecap: square; }
    </style>
  </defs>
  <rect width="100%" height="100%" fill="#FAFAF8"/>

  <!-- Icon shadows -->
  <polygon class="shadow" points="112,362 472,362 472,372 112,372"/>
  <polygon class="shadow" points="146,278 290,278 290,288 146,288"/>
  <polygon class="shadow" points="208,186 303,214 303,224 208,196"/>

  <!-- Icon main slabs -->
  <polygon class="navy" points="100,352 470,352 470,366 100,366"/>
  <polygon class="gold" points="140,266 290,266 440,283 440,297 290,280 140,280"/>
  <polygon class="navy" points="205,178 310,205 440,235 440,249 310,219 205,192"/>

  <!-- Internal supports -->
  <rect class="gold" x="385" y="224" width="8" height="63"/>
  <rect class="navy" x="385" y="301" width="8" height="52"/>

  <!-- Right vertical frame -->
  <polygon class="gold" points="385,162 470,130 470,347 458,347 458,148 397,172 397,190 385,194"/>

  <!-- Wordmark -->
  <path d="M 546.51 427.58 L 546.51 421.48 L 557.46 421.48 L 557.46 347.73 L 545.88 347.73 L 545.88 341.55 L 570.94 341.55 L 601.14 402.80 L 631.32 341.55 L 654.83 341.55 L 654.83 347.73 L 643.36 347.73 L 643.36 421.48 L 654.37 421.48 L 654.37 427.58 L 620.72 427.58 L 620.72 421.48 L 631.67 421.48 L 631.67 354.97 L 602.17 414.97 L 594.04 414.97 L 564.54 354.97 L 564.54 421.48 L 575.49 421.48 L 575.49 427.58 L 546.51 427.58 Z M 667.33 427.58 L 667.33 421.48 L 678.28 421.48 L 678.28 347.73 L 667.33 347.73 L 667.33 341.55 L 736.58 341.55 L 736.58 360.69 L 729.50 360.69 L 729.50 348.65 L 689.97 348.65 L 689.97 377.45 L 718.15 377.45 L 718.15 366.68 L 725.24 366.68 L 725.24 395.26 L 718.15 395.26 L 718.15 384.47 L 689.97 384.47 L 689.97 420.50 L 730.42 420.50 L 730.42 408.44 L 737.50 408.44 L 737.50 427.58 L 667.33 427.58 Z M 752.27 427.58 L 752.27 423.43 L 805.85 348.65 L 761.36 348.65 L 761.36 361.50 L 754.28 361.50 L 754.28 341.55 L 822.26 341.55 L 822.26 345.70 L 768.68 420.50 L 817.32 420.50 L 817.32 408.44 L 824.34 408.44 L 824.34 427.58 L 752.27 427.58 Z M 852.57 396.40 L 884.15 396.40 L 868.37 355.51 L 852.57 396.40 Z M 828.25 427.58 L 828.25 421.48 L 835.81 421.48 L 866.45 341.55 L 876.13 341.55 L 906.85 421.48 L 915.31 421.48 L 915.31 427.58 L 884.04 427.58 L 884.04 421.48 L 893.59 421.48 L 886.40 402.58 L 850.21 402.58 L 843.02 421.48 L 852.46 421.48 L 852.46 427.58 L 828.25 427.58 Z M 919.94 427.58 L 919.94 421.48 L 931.52 421.48 L 931.52 347.73 L 919.94 347.73 L 919.94 341.55 L 941.99 341.55 L 993.56 409.44 L 993.56 347.73 L 982.03 347.73 L 982.03 341.55 L 1012.24 341.55 L 1012.24 347.73 L 1000.66 347.73 L 1000.66 429.26 L 993.69 429.26 L 938.60 356.76 L 938.60 421.48 L 950.17 421.48 L 950.17 427.58 L 919.94 427.58 Z M 1046.57 421.48 L 1057.52 421.48 L 1057.52 427.58 L 1023.92 427.58 L 1023.92 421.48 L 1034.88 421.48 L 1034.88 347.73 L 1023.92 347.73 L 1023.92 341.55 L 1057.52 341.55 L 1057.52 347.73 L 1046.57 347.73 L 1046.57 421.48 Z M 1069.80 427.58 L 1069.80 421.48 L 1081.38 421.48 L 1081.38 347.73 L 1069.80 347.73 L 1069.80 341.55 L 1091.85 341.55 L 1143.42 409.44 L 1143.42 347.73 L 1131.90 347.73 L 1131.90 341.55 L 1162.10 341.55 L 1162.10 347.73 L 1150.52 347.73 L 1150.52 429.26 L 1143.55 429.26 L 1088.46 356.76 L 1088.46 421.48 L 1100.04 421.48 L 1100.04 427.58 L 1069.80 427.58 Z M 1215.68 423.08 Q 1229.80 423.08 1236.99 413.38 Q 1244.20 403.66 1244.20 384.66 Q 1244.20 365.57 1236.99 355.87 Q 1229.80 346.16 1215.68 346.16 Q 1201.50 346.16 1194.29 355.87 Q 1187.10 365.57 1187.10 384.66 Q 1187.10 403.66 1194.29 413.38 Q 1201.50 423.08 1215.68 423.08 Z M 1215.68 429.26 Q 1206.92 429.26 1199.56 426.38 Q 1192.22 423.49 1186.64 417.90 Q 1180.18 411.45 1177.03 403.26 Q 1173.90 395.07 1173.90 384.66 Q 1173.90 374.22 1177.03 366.02 Q 1180.18 357.81 1186.64 351.36 Q 1192.28 345.70 1199.54 342.86 Q 1206.81 340.00 1215.68 340.00 Q 1234.41 340.00 1245.93 352.28 Q 1257.46 364.54 1257.46 384.66 Q 1257.46 394.96 1254.28 403.24 Q 1251.11 411.50 1244.66 417.90 Q 1239.02 423.54 1231.75 426.40 Q 1224.49 429.26 1215.68 429.26 Z" fill="#021A39"/>
  <path d="M 744.32 466.63 L 748.66 466.63 L 748.66 498.71 L 744.32 498.71 L 744.32 466.63 Z M 757.29 466.63 L 763.76 466.63 L 771.94 488.46 L 780.17 466.63 L 786.64 466.63 L 786.64 498.71 L 782.41 498.71 L 782.41 470.54 L 774.14 492.54 L 769.78 492.54 L 761.51 470.54 L 761.51 498.71 L 757.29 498.71 L 757.29 466.63 Z M 808.28 469.57 Q 803.55 469.57 800.76 473.10 Q 797.99 476.62 797.99 482.70 Q 797.99 488.76 800.76 492.29 Q 803.55 495.81 808.28 495.81 Q 813.00 495.81 815.77 492.29 Q 818.53 488.76 818.53 482.70 Q 818.53 476.62 815.77 473.10 Q 813.00 469.57 808.28 469.57 Z M 808.28 466.05 Q 815.02 466.05 819.06 470.57 Q 823.10 475.10 823.10 482.70 Q 823.10 490.29 819.06 494.81 Q 815.02 499.33 808.28 499.33 Q 801.51 499.33 797.46 494.82 Q 793.41 490.31 793.41 482.70 Q 793.41 475.10 797.46 470.57 Q 801.51 466.05 808.28 466.05 Z M 834.23 483.39 L 834.23 495.14 L 841.19 495.14 Q 844.69 495.14 846.38 493.69 Q 848.07 492.24 848.07 489.25 Q 848.07 486.24 846.38 484.82 Q 844.69 483.39 841.19 483.39 L 834.23 483.39 Z M 834.23 470.20 L 834.23 479.86 L 840.66 479.86 Q 843.83 479.86 845.39 478.67 Q 846.95 477.48 846.95 475.03 Q 846.95 472.60 845.39 471.40 Q 843.83 470.20 840.66 470.20 L 834.23 470.20 Z M 829.89 466.63 L 840.98 466.63 Q 845.94 466.63 848.62 468.69 Q 851.31 470.75 851.31 474.56 Q 851.31 477.50 849.94 479.24 Q 848.56 480.98 845.89 481.41 Q 849.10 482.10 850.87 484.28 Q 852.65 486.46 852.65 489.73 Q 852.65 494.03 849.72 496.37 Q 846.80 498.71 841.41 498.71 L 829.89 498.71 L 829.89 466.63 Z M 860.08 466.63 L 864.41 466.63 L 864.41 498.71 L 860.08 498.71 L 860.08 466.63 Z M 873.05 466.63 L 877.39 466.63 L 877.39 495.06 L 893.01 495.06 L 893.01 498.71 L 873.05 498.71 L 873.05 466.63 Z M 897.57 466.63 L 901.90 466.63 L 901.90 498.71 L 897.57 498.71 L 897.57 466.63 Z M 921.27 470.90 L 915.38 486.87 L 927.17 486.87 L 921.27 470.90 Z M 918.81 466.63 L 923.74 466.63 L 935.96 498.71 L 931.45 498.71 L 928.53 490.48 L 914.07 490.48 L 911.15 498.71 L 906.57 498.71 L 918.81 466.63 Z M 922.42 458.00 L 926.40 458.00 L 921.50 463.67 L 918.21 463.67 L 922.42 458.00 Z M 955.86 483.66 Q 957.25 484.14 958.57 485.69 Q 959.89 487.23 961.23 489.94 L 965.63 498.71 L 960.96 498.71 L 956.87 490.48 Q 955.27 487.25 953.78 486.20 Q 952.29 485.15 949.71 485.15 L 944.98 485.15 L 944.98 498.71 L 940.64 498.71 L 940.64 466.63 L 950.44 466.63 Q 955.94 466.63 958.65 468.93 Q 961.36 471.23 961.36 475.87 Q 961.36 478.90 959.95 480.90 Q 958.54 482.89 955.86 483.66 Z M 944.98 470.20 L 944.98 481.58 L 950.44 481.58 Q 953.57 481.58 955.18 480.13 Q 956.78 478.68 956.78 475.87 Q 956.78 473.06 955.18 471.63 Q 953.57 470.20 950.44 470.20 L 944.98 470.20 Z M 971.21 466.63 L 975.55 466.63 L 975.55 498.71 L 971.21 498.71 L 971.21 466.63 Z M 994.92 470.90 L 989.02 486.87 L 1000.82 486.87 L 994.92 470.90 Z M 992.46 466.63 L 997.38 466.63 L 1009.61 498.71 L 1005.10 498.71 L 1002.18 490.48 L 987.72 490.48 L 984.80 498.71 L 980.22 498.71 L 992.46 466.63 Z" fill="#BC9350"/>

  <!-- Subtitle divider lines -->
  <line x1="540" y1="444" x2="690" y2="444" class="line"/>
  <line x1="1044.61" y1="444" x2="1480" y2="444" class="line"/>
</svg>