<?xml version="1.0" encoding="UTF-8"?>
<svg xmlns="http://www.w3.org/2000/svg" width="1400" height="1400" viewBox="0 0 1400 1400" fill="none" role="img" aria-labelledby="title desc">
<title id="title">Mezanino Imobiliária</title>
<desc id="desc">Versão SVG com pathing do logo Mezanino Imobiliária, em azul marinho e dourado, inspirada na segunda opção.</desc>
<defs>
<linearGradient id="goldGrad" x1="0" y1="0" x2="1" y2="1"><stop offset="0%" stop-color="#D4AE71"/><stop offset="100%" stop-color="#BD8D44"/></linearGradient>
<linearGradient id="navyGrad" x1="0" y1="0" x2="1" y2="1"><stop offset="0%" stop-color="#243752"/><stop offset="100%" stop-color="#17263D"/></linearGradient>
</defs>
<g id="icon">
<path d="M460 742H940" stroke="url(#navyGrad)" stroke-width="9" stroke-linecap="square"/>
<path d="M510 742V470L700 326L890 470V742" stroke="url(#navyGrad)" stroke-width="9" fill="none"/>
<path d="M700 365V705" stroke="url(#goldGrad)" stroke-width="7"/>
<path d="M700 365L850 480" stroke="url(#goldGrad)" stroke-width="4"/>
<path d="M768 433V594 M790 449V587 M812 466V580 M834 482V573" stroke="url(#goldGrad)" stroke-width="4"/>
<path d="M580 607L690 571L865 623L755 654Z" fill="url(#goldGrad)"/>
<path d="M607 625L690 598L850 645L767 670Z" fill="url(#navyGrad)"/>
<path d="M700 548L850 548" stroke="url(#goldGrad)" stroke-width="6"/>
<path d="M760 640V742 M875 620V742" stroke="url(#navyGrad)" stroke-width="5"/>
<path d="M574 712L688 602V642L613 712Z" fill="#E8E4DC"/>
<path d="M546 720H598V706H560V694H613V681H575V669H628V656H590V644H643V631H605V619H658V606H620V594H673V581H635V569H688V602H673V615H658V627H643V640H628V652H613V665H598V677H583V690H568V702H553V715H546Z" fill="url(#goldGrad)"/>
<path d="M530 642L690 592" stroke="url(#goldGrad)" stroke-width="3"/>
</g>
<g id="wordmark">
<path d="M344.13,820.61 Q344.13,835.12 344.74,848.77 Q345.37,862.41 346.49,879.31 Q347.63,896.21 347.99,903.38 Q348.15,908.79 351.30,911.69 Q354.47,914.59 361.12,915.79 Q366.88,916.86 366.88,918.96 Q366.88,920.88 361.80,920.88 Q356.90,920.88 351.03,920.44 Q345.17,920.00 341.35,920.00 Q338.01,920.00 333.01,920.44 Q328.03,920.88 322.94,920.88 Q317.88,920.88 317.88,918.96 Q317.88,916.50 323.65,915.79 Q328.74,915.11 330.65,912.32 Q332.60,909.50 332.60,903.21 Q332.60,886.04 330.49,838.79 Q330.49,836.00 329.62,836.00 Q329.10,836.00 327.67,838.79 L288.85,917.54 Q286.90,921.75 285.87,921.75 Q284.99,921.75 283.40,917.21 Q273.62,887.79 252.10,837.59 Q250.35,833.54 249.80,837.59 Q244.22,879.04 244.22,902.14 Q244.22,906.36 247.01,910.57 Q249.80,914.75 255.57,915.82 Q261.37,916.86 261.37,918.96 Q261.37,920.88 256.28,920.88 Q251.22,920.88 246.93,920.44 Q242.63,920.00 239.82,920.00 Q237.03,920.00 233.01,920.44 Q228.99,920.88 223.90,920.88 Q218.85,920.88 218.85,918.96 Q218.85,916.86 224.62,915.79 Q233.53,914.23 235.47,902.14 Q242.63,848.41 242.63,825.86 Q242.63,824.79 242.55,823.59 Q242.47,822.36 242.47,821.84 Q242.47,819.38 239.85,816.23 Q238.78,815.00 237.47,814.12 Q236.15,813.25 234.32,812.65 Q232.49,812.02 231.26,811.69 Q230.03,811.34 227.92,810.90 Q225.85,810.46 225.30,810.27 Q222.87,809.39 222.87,807.29 Q222.87,805.38 226.88,805.38 Q230.38,805.38 242.12,806.09 Q253.85,806.77 255.92,806.77 Q257.35,806.77 258.47,809.67 Q259.62,812.54 260.65,817.11 Q261.72,821.64 262.24,823.04 L289.88,893.23 Q290.92,895.86 291.99,895.86 Q292.87,895.86 293.90,893.75 L328.38,822.00 Q329.42,819.73 330.13,815.71 Q330.85,811.66 331.53,809.15 Q332.24,806.61 333.28,806.61 L339.60,806.61 Q343.78,806.61 350.78,805.92 Q357.78,805.21 359.01,805.21 L359.53,805.21 Q363.22,805.21 363.22,806.96 Q363.22,809.39 358.65,810.98 Q354.12,812.38 351.93,813.09 Q349.74,813.77 346.92,815.88 Q344.13,817.98 344.13,820.61 Z" fill="#1B2E4A"/>
<path d="M409.62,902.14 Q409.62,908.62 412.32,911.25 Q415.03,913.88 421.15,913.88 L439.37,913.88 Q448.63,913.88 452.65,910.73 Q455.99,908.11 460.01,899.71 Q461.08,897.77 462.47,897.96 Q464.74,898.29 464.74,899.88 Q464.74,906.88 461.76,917.89 Q461.08,920.88 459.33,920.88 Q447.40,920.88 428.87,920.36 Q410.33,919.84 402.10,919.84 Q398.40,919.84 392.63,920.36 Q386.87,920.88 381.97,920.88 Q376.88,920.88 376.88,918.96 Q376.88,916.86 382.65,915.79 Q389.49,914.59 392.55,911.69 Q395.62,908.79 395.62,902.66 L395.62,823.91 Q395.62,817.79 393.07,815.08 Q390.53,812.38 383.88,811.14 Q378.12,810.11 378.12,807.64 Q378.12,805.73 383.20,805.73 Q389.85,805.73 399.03,806.00 Q408.22,806.25 414.15,806.25 Q421.15,806.25 430.42,806.09 Q439.72,805.89 446.17,805.81 Q452.65,805.73 453.01,805.73 Q455.99,805.73 456.15,807.29 Q458.78,821.48 458.78,825.34 Q458.78,827.96 456.35,827.96 Q454.95,827.96 454.40,826.21 Q451.78,817.98 450.58,816.59 Q446.37,811.86 438.85,811.86 L415.90,811.86 Q414.15,811.86 411.88,813.52 Q409.62,815.16 409.62,817.46 L409.62,854.54 Q409.62,856.12 410.57,857.27 Q411.53,858.39 412.76,858.39 L429.58,858.39 Q437.26,858.39 440.24,851.59 Q440.60,850.88 441.72,849.75 Q442.87,848.61 443.38,848.61 Q444.10,848.61 444.86,849.40 Q445.65,850.16 445.65,851.39 Q445.65,852.11 445.38,855.80 Q445.13,859.46 445.13,861.02 Q445.13,862.96 445.30,867.69 Q445.49,872.39 445.49,872.91 Q445.49,875.89 443.90,875.89 Q441.12,875.89 439.88,871.88 Q437.26,864.00 431.85,864.00 L415.58,864.00 Q412.24,864.00 410.93,864.88 Q409.62,865.75 409.62,868.54 L409.62,902.14 Z" fill="#1B2E4A"/>
<path d="M510.26,920.36 Q506.76,920.36 499.76,920.44 Q492.76,920.52 489.45,920.52 L475.97,920.52 Q475.45,920.52 475.18,919.92 Q474.93,919.29 474.74,918.61 L474.74,918.09 Q474.74,915.46 484.88,901.79 Q526.01,845.62 544.74,817.11 Q545.45,816.04 545.45,815.71 Q545.45,814.48 542.12,814.29 Q529.51,813.96 516.58,813.96 Q503.10,813.96 498.72,814.29 Q493.83,814.64 489.26,817.54 Q484.72,820.41 482.62,826.38 Q480.35,831.98 477.72,831.98 Q476.13,831.98 476.13,830.04 Q476.13,828.64 477.37,825.34 Q481.38,813.25 482.10,805.89 Q482.26,802.91 484.72,802.91 Q485.95,802.91 489.10,805.38 Q491.01,806.77 501.87,806.77 Q510.97,806.96 527.24,806.96 Q548.24,806.96 567.68,806.41 Q568.56,806.41 569.32,807.64 Q570.12,808.88 569.60,809.59 L558.93,823.75 Q521.12,874.66 499.76,907.75 Q499.24,908.62 499.24,909.86 Q499.24,912.48 501.18,912.84 Q509.58,913.71 520.95,913.71 Q531.97,913.71 545.62,912.84 Q560.33,911.61 567.33,895.14 Q568.72,891.48 571.18,891.48 Q572.74,891.48 572.74,893.75 Q572.74,895.34 570.20,905.12 Q567.68,914.91 566.26,917.89 Q564.70,920.88 563.12,920.88 Q552.62,920.88 535.03,920.60 Q517.45,920.36 510.26,920.36 Z" fill="#1B2E4A"/>
<path d="M641.37,825.14 L625.62,867.14 Q625.26,868.21 625.26,868.54 Q625.26,869.77 628.95,869.77 L656.08,869.77 Q658.51,869.77 658.51,868.89 Q658.51,868.54 658.18,867.14 L644.35,825.34 Q643.31,822.16 642.76,822.16 Q642.43,822.16 641.37,825.14 Z M699.99,920.88 Q697.88,920.88 688.97,920.36 Q680.06,919.84 675.68,919.84 Q671.99,919.84 665.51,919.92 Q659.06,920.00 657.31,920.00 Q652.22,920.00 652.22,917.89 Q652.22,915.46 657.99,914.59 Q668.68,912.84 668.68,906.71 Q668.68,901.46 662.01,879.23 Q661.49,877.29 657.31,877.29 L623.87,877.29 Q621.95,877.29 620.88,880.46 Q613.88,900.75 613.88,904.77 Q613.88,908.46 616.78,911.09 Q619.68,913.71 624.06,914.75 Q629.83,916.34 629.83,918.25 Q629.83,920.16 624.74,920.16 Q623.51,920.16 617.99,920.00 Q612.49,919.84 608.83,919.84 Q604.81,919.84 597.62,920.36 Q590.45,920.88 587.83,920.88 Q582.74,920.88 582.74,918.61 Q582.74,916.50 588.51,914.59 Q599.01,911.41 603.58,901.11 Q620.37,862.61 636.31,818.86 Q637.51,815.71 638.03,813.17 Q638.58,810.62 638.58,809.67 Q638.58,808.71 638.74,808.71 Q643.47,807.12 645.06,806.09 Q646.10,805.38 646.78,803.82 Q647.49,802.23 647.93,801.11 Q648.37,799.96 648.72,799.96 Q649.08,799.96 650.47,804.14 Q663.43,844.91 681.62,897.61 Q684.95,907.23 688.97,910.65 Q692.99,914.04 699.31,915.11 Q705.08,916.14 705.08,919.12 Q705.08,920.88 699.99,920.88 Z" fill="#1B2E4A"/>
<path d="M822.51,806.25 Q826.37,806.25 831.70,806.00 Q837.06,805.73 842.63,805.73 Q847.72,805.73 847.72,807.64 Q847.72,810.11 841.95,811.14 Q835.47,812.38 833.28,814.32 Q831.10,816.23 830.93,820.61 Q830.58,829.00 830.58,918.61 Q830.58,922.98 826.88,922.98 Q824.97,922.98 820.76,920.08 Q816.58,917.21 812.72,911.96 Q807.99,905.48 750.43,835.29 Q748.13,832.50 746.74,832.50 Q745.18,832.50 745.18,836.16 Q744.31,879.59 744.31,901.79 Q744.31,913.71 755.49,915.79 Q761.26,916.86 761.26,918.96 Q761.26,920.88 756.17,920.88 Q751.12,920.88 746.82,920.44 Q742.56,920.00 739.74,920.00 Q736.95,920.00 732.90,920.44 Q728.88,920.88 723.80,920.88 Q718.74,920.88 718.74,918.96 Q718.74,917.21 724.51,915.62 Q733.45,913.16 734.68,901.27 Q737.83,871.71 737.83,831.27 Q737.83,822.71 733.53,818.50 Q729.24,814.29 720.49,811.50 Q715.08,809.75 715.08,807.32 Q715.08,804.86 719.10,804.86 Q724.51,805.02 731.78,805.38 Q739.06,805.73 746.06,805.73 Q747.97,805.73 750.24,808.71 Q752.51,811.86 783.05,850.27 Q813.60,888.66 816.93,892.71 Q819.88,896.21 821.31,896.21 Q822.87,896.21 823.06,892.52 Q823.38,881.34 823.38,836.52 L823.38,821.29 Q823.22,818.14 819.80,815.19 Q816.38,812.21 813.24,811.66 Q807.47,810.62 807.47,808.16 Q807.47,806.25 812.56,806.25 L822.51,806.25 Z" fill="#1B2E4A"/>
<path d="M877.13,823.75 Q877.13,817.62 874.59,815.00 Q872.05,812.38 865.40,811.14 Q859.63,810.11 859.63,807.64 Q859.63,805.73 864.72,805.73 Q869.62,805.73 875.47,806.00 Q881.35,806.25 885.17,806.25 Q888.67,806.25 894.01,806.00 Q899.37,805.73 904.26,805.73 Q909.35,805.73 909.35,807.64 Q909.35,810.11 903.55,811.14 Q896.74,812.38 893.92,815.08 Q891.13,817.79 891.13,823.75 L891.13,902.86 Q891.13,908.79 894.55,911.69 Q897.97,914.59 904.97,915.79 Q910.74,916.86 910.74,918.96 Q910.74,920.88 905.65,920.88 Q900.76,920.88 894.88,920.44 Q889.03,920.00 885.17,920.00 Q880.99,920.00 874.32,920.44 Q867.67,920.88 862.78,920.88 Q857.72,920.88 857.72,918.96 Q857.72,916.86 863.49,915.79 Q870.49,914.59 873.80,911.69 Q877.13,908.79 877.13,902.86 L877.13,823.75 Z" fill="#1B2E4A"/>
<path d="M1028.17,806.25 Q1032.03,806.25 1037.36,806.00 Q1042.72,805.73 1048.30,805.73 Q1053.38,805.73 1053.38,807.64 Q1053.38,810.11 1047.62,811.14 Q1041.13,812.38 1038.95,814.32 Q1036.76,816.23 1036.60,820.61 Q1036.24,829.00 1036.24,918.61 Q1036.24,922.98 1032.55,922.98 Q1030.63,922.98 1026.42,920.08 Q1022.24,917.21 1018.38,911.96 Q1013.65,905.48 956.10,835.29 Q953.80,832.50 952.40,832.50 Q950.85,832.50 950.85,836.16 Q949.97,879.59 949.97,901.79 Q949.97,913.71 961.15,915.79 Q966.92,916.86 966.92,918.96 Q966.92,920.88 961.84,920.88 Q956.78,920.88 952.49,920.44 Q948.22,920.00 945.40,920.00 Q942.62,920.00 938.57,920.44 Q934.55,920.88 929.46,920.88 Q924.40,920.88 924.40,918.96 Q924.40,917.21 930.17,915.62 Q939.12,913.16 940.35,901.27 Q943.49,871.71 943.49,831.27 Q943.49,822.71 939.20,818.50 Q934.90,814.29 926.15,811.50 Q920.74,809.75 920.74,807.32 Q920.74,804.86 924.76,804.86 Q930.17,805.02 937.45,805.38 Q944.72,805.73 951.72,805.73 Q953.63,805.73 955.90,808.71 Q958.17,811.86 988.72,850.27 Q1019.26,888.66 1022.60,892.71 Q1025.55,896.21 1026.97,896.21 Q1028.53,896.21 1028.72,892.52 Q1029.05,881.34 1029.05,836.52 L1029.05,821.29 Q1028.88,818.14 1025.47,815.19 Q1022.05,812.21 1018.90,811.66 Q1013.13,810.62 1013.13,808.16 Q1013.13,806.25 1018.22,806.25 L1028.17,806.25 Z" fill="#1B2E4A"/>
<path d="M1063.38,864.00 Q1063.38,847.73 1070.11,834.36 Q1076.87,820.96 1090.87,812.38 Q1104.87,803.79 1123.76,803.79 Q1147.22,803.79 1164.17,819.98 Q1181.15,836.16 1181.15,861.38 Q1181.15,873.27 1177.30,884.21 Q1173.47,895.14 1166.20,903.73 Q1158.92,912.29 1147.55,917.38 Q1136.17,922.46 1122.37,922.46 Q1098.74,922.46 1081.05,905.48 Q1063.38,888.50 1063.38,864.00 Z M1121.13,810.62 Q1102.60,810.62 1091.47,824.98 Q1080.37,839.34 1080.37,858.75 Q1080.37,881.86 1093.05,898.75 Q1105.74,915.62 1124.63,915.62 Q1143.88,915.62 1154.03,902.58 Q1164.17,889.54 1164.17,866.62 Q1164.17,841.09 1152.96,825.86 Q1141.78,810.62 1121.13,810.62 Z" fill="#1B2E4A"/>
<path d="M651 876H694V882H651Z" fill="url(#goldGrad)"/>
<path d="M184 1004H330" stroke="url(#goldGrad)" stroke-width="3" stroke-linecap="square"/>
<path d="M506.28,985.71 L512.00,985.71 L512.00,1028.00 L506.28,1028.00 L506.28,985.71 Z" fill="#C79A54"/>
<path d="M524.00,985.71 L532.53,985.71 L543.31,1014.49 L554.16,985.71 L562.69,985.71 L562.69,1028.00 L557.11,1028.00 L557.11,990.87 L546.20,1019.87 L540.46,1019.87 L529.56,990.87 L529.56,1028.00 L524.00,1028.00 L524.00,985.71 Z" fill="#C79A54"/>
<path d="M594.29,989.59 Q588.06,989.59 584.39,994.24 Q580.72,998.88 580.72,1006.90 Q580.72,1014.89 584.39,1019.54 Q588.06,1024.18 594.29,1024.18 Q600.52,1024.18 604.16,1019.54 Q607.80,1014.89 607.80,1006.90 Q607.80,998.88 604.16,994.24 Q600.52,989.59 594.29,989.59 Z M594.29,984.95 Q603.18,984.95 608.50,990.92 Q613.83,996.88 613.83,1006.90 Q613.83,1016.90 608.50,1022.86 Q603.18,1028.82 594.29,1028.82 Q585.37,1028.82 580.03,1022.88 Q574.69,1016.93 574.69,1006.90 Q574.69,996.88 580.03,990.92 Q585.37,984.95 594.29,984.95 Z" fill="#C79A54"/>
<path d="M631.55,1007.81 L631.55,1023.30 L640.73,1023.30 Q645.34,1023.30 647.56,1021.38 Q649.79,1019.47 649.79,1015.54 Q649.79,1011.57 647.56,1009.69 Q645.34,1007.81 640.73,1007.81 L631.55,1007.81 Z M631.55,990.42 L631.55,1003.16 L640.02,1003.16 Q644.21,1003.16 646.26,1001.59 Q648.31,1000.01 648.31,996.79 Q648.31,993.59 646.26,992.00 Q644.21,990.42 640.02,990.42 L631.55,990.42 Z M625.83,985.71 L640.45,985.71 Q646.99,985.71 650.53,988.43 Q654.07,991.15 654.07,996.16 Q654.07,1000.05 652.26,1002.34 Q650.44,1004.64 646.93,1005.20 Q651.15,1006.11 653.49,1008.99 Q655.83,1011.86 655.83,1016.16 Q655.83,1021.83 651.98,1024.92 Q648.12,1028.00 641.01,1028.00 L625.83,1028.00 L625.83,985.71 Z" fill="#C79A54"/>
<path d="M667.83,985.71 L673.55,985.71 L673.55,1028.00 L667.83,1028.00 L667.83,985.71 Z" fill="#C79A54"/>
<path d="M685.55,985.71 L691.26,985.71 L691.26,1023.19 L711.85,1023.19 L711.85,1028.00 L685.55,1028.00 L685.55,985.71 Z" fill="#C79A54"/>
<path d="M723.85,985.71 L729.57,985.71 L729.57,1028.00 L723.85,1028.00 L723.85,985.71 Z" fill="#C79A54"/>
<path d="M760.95,991.35 L753.18,1012.39 L768.73,1012.39 L760.95,991.35 Z M757.71,985.71 L764.20,985.71 L780.31,1028.00 L774.37,1028.00 L770.52,1017.15 L751.46,1017.15 L747.61,1028.00 L741.57,1028.00 L757.71,985.71 Z M762.47,974.34 L767.71,974.34 L761.26,981.82 L756.92,981.82 L762.47,974.34 Z" fill="#C79A54"/>
<path d="M812.37,1008.17 Q814.21,1008.80 815.95,1010.84 Q817.69,1012.87 819.45,1016.45 L825.26,1028.00 L819.10,1028.00 L813.70,1017.15 Q811.60,1012.90 809.63,1011.52 Q807.67,1010.13 804.27,1010.13 L798.03,1010.13 L798.03,1028.00 L792.31,1028.00 L792.31,985.71 L805.23,985.71 Q812.48,985.71 816.05,988.75 Q819.62,991.78 819.62,997.89 Q819.62,1001.89 817.76,1004.53 Q815.90,1007.16 812.37,1008.17 Z M798.03,990.42 L798.03,1005.43 L805.23,1005.43 Q809.36,1005.43 811.47,1003.51 Q813.58,1001.60 813.58,997.89 Q813.58,994.19 811.47,992.30 Q809.36,990.42 805.23,990.42 L798.03,990.42 Z" fill="#C79A54"/>
<path d="M837.26,985.71 L842.98,985.71 L842.98,1028.00 L837.26,1028.00 L837.26,985.71 Z" fill="#C79A54"/>
<path d="M874.35,991.35 L866.58,1012.39 L882.14,1012.39 L874.35,991.35 Z M871.12,985.71 L877.60,985.71 L893.72,1028.00 L887.77,1028.00 L883.92,1017.15 L864.86,1017.15 L861.01,1028.00 L854.98,1028.00 L871.12,985.71 Z" fill="#C79A54"/>
<path d="M1070 1004H1216" stroke="url(#goldGrad)" stroke-width="3" stroke-linecap="square"/>
</g>
</svg>